<svg xmlns="http://www.w3.org/2000/svg" xmlns:xlink="http://www.w3.org/1999/xlink" width="1024" zoomAndPan="magnify" viewBox="0 0 768 767.999994" height="1024" preserveAspectRatio="xMidYMid meet" version="1.0"><defs><g/><clipPath id="f298fe4b8e"><rect x="0" width="733" y="0" height="768"/></clipPath><clipPath id="b52238d77e"><path d="M 176.597656 223.964844 L 505.671875 223.964844 L 505.671875 553.039062 L 176.597656 553.039062 Z M 176.597656 223.964844 " clip-rule="nonzero"/></clipPath><clipPath id="eba2c8de49"><path d="M 409.261719 223.964844 L 505.671875 320.375 L 505.671875 456.628906 L 409.261719 553.039062 L 273.007812 553.039062 L 176.597656 456.628906 L 176.597656 320.375 L 273.007812 223.964844 Z M 409.261719 223.964844 " clip-rule="nonzero"/></clipPath><clipPath id="fedf03612f"><path d="M 0.597656 0.964844 L 329.671875 0.964844 L 329.671875 330.039062 L 0.597656 330.039062 Z M 0.597656 0.964844 " clip-rule="nonzero"/></clipPath><clipPath id="89c4c8766a"><path d="M 233.261719 0.964844 L 329.671875 97.375 L 329.671875 233.628906 L 233.261719 330.039062 L 97.007812 330.039062 L 0.597656 233.628906 L 0.597656 97.375 L 97.007812 0.964844 Z M 233.261719 0.964844 " clip-rule="nonzero"/></clipPath><clipPath id="66de0e5c46"><rect x="0" width="330" y="0" height="331"/></clipPath><clipPath id="9662b289aa"><path d="M 125.210938 230 L 637 230 L 637 547 L 125.210938 547 Z M 125.210938 230 " clip-rule="nonzero"/></clipPath><clipPath id="1d3fdfba24"><path d="M 222.558594 283.59375 C 194.996094 396.226562 175.75 464.183594 166.957031 491.035156 C 163.15625 502.675781 161.015625 510.042969 157.691406 516.222656 C 155.3125 520.261719 153.414062 523.113281 150.5625 525.25 C 147.710938 527.152344 143.671875 528.816406 140.582031 529.054688 C 137.96875 529.054688 135.828125 528.578125 133.691406 527.390625 C 131.078125 525.726562 127.75 522.164062 126.5625 519.3125 C 125.609375 517.171875 125.375 515.984375 125.609375 512.421875 C 127.035156 496.738281 151.273438 426.164062 162.917969 394.5625 C 171.234375 372.9375 178.125 358.207031 186.679688 340.382812 C 195.234375 322.5625 205.214844 303.554688 214.71875 288.109375 C 222.558594 275.515625 230.164062 263.871094 238.242188 254.128906 C 244.65625 246.050781 249.886719 236.546875 257.964844 233.21875 C 266.042969 229.890625 279.585938 230.128906 286.714844 233.933594 C 292.65625 237.257812 295.984375 242.484375 298.835938 252.226562 C 306.914062 279.078125 295.507812 376.738281 298.121094 414.757812 C 299.308594 435.433594 301.210938 448.976562 304.300781 462.519531 C 306.675781 472.976562 307.390625 489.371094 313.328125 489.847656 C 330.675781 491.507812 416.21875 291.433594 443.304688 256.269531 C 452.097656 244.625 458.515625 239.632812 464.691406 235.59375 C 468.492188 233.21875 471.820312 231.792969 475.148438 231.554688 C 477.761719 231.316406 480.136719 231.792969 482.277344 233.21875 C 485.128906 234.882812 488.453125 238.683594 489.878906 241.535156 C 491.066406 243.910156 491.304688 246.289062 491.066406 248.902344 C 490.355469 251.992188 486.316406 259.121094 485.839844 258.882812 C 485.601562 258.644531 489.640625 242.484375 491.066406 242.484375 C 492.730469 242.484375 494.394531 252.941406 495.34375 261.96875 C 497.007812 281.691406 492.019531 329.214844 492.730469 356.304688 C 493.207031 376.738281 495.105469 392.898438 497.007812 410.007812 C 498.671875 425.453125 499.621094 438.757812 503.1875 454.203125 C 506.988281 472.5 510.550781 505.054688 520.292969 512.183594 C 526.234375 516.695312 534.3125 515.507812 542.394531 511.945312 C 556.886719 505.765625 583.027344 474.640625 592.769531 460.382812 C 598.234375 452.066406 600.132812 446.363281 602.511719 438.285156 C 604.886719 429.492188 606.3125 418.324219 606.789062 409.292969 C 607.023438 401.453125 607.976562 393.136719 605.363281 386.957031 C 602.984375 381.253906 597.996094 376.503906 593.007812 372.9375 C 587.539062 369.136719 579.699219 366.523438 573.519531 365.097656 C 568.054688 363.671875 563.304688 364.859375 557.839844 363.910156 C 551.421875 362.484375 541.441406 359.871094 537.878906 356.542969 C 535.738281 354.878906 535.027344 352.742188 534.789062 350.601562 C 534.3125 348.464844 534.789062 345.851562 535.976562 343.949219 C 536.929688 342.046875 539.066406 340.148438 540.96875 339.195312 C 542.867188 338.246094 545.71875 338.007812 547.859375 338.722656 C 549.757812 339.195312 552.375 340.382812 553.5625 342.285156 C 555.226562 344.425781 556.414062 349.175781 555.460938 352.027344 C 554.75 354.878906 551.421875 358.207031 548.570312 359.15625 C 545.71875 360.105469 540.96875 359.15625 538.589844 357.492188 C 536.453125 355.59375 534.3125 351.078125 534.550781 348.226562 C 534.789062 345.375 536.929688 341.574219 540.015625 339.671875 C 544.292969 337.058594 554.035156 337.53125 561.164062 337.769531 C 568.53125 338.007812 575.898438 338.957031 583.738281 341.335938 C 593.007812 344.1875 604.886719 348.464844 613.203125 355.117188 C 621.519531 361.769531 629.597656 371.75 633.402344 381.730469 C 637.203125 391.472656 636.726562 402.640625 636.488281 413.570312 C 636.015625 425.691406 634.113281 439.234375 630.550781 450.640625 C 627.222656 461.570312 621.996094 472.023438 616.292969 480.816406 C 611.066406 488.894531 604.648438 494.597656 597.996094 501.726562 C 590.867188 509.332031 583.261719 518.121094 575.183594 524.777344 C 567.34375 531.429688 559.027344 539.035156 549.996094 542.359375 C 541.207031 545.6875 530.75 547.351562 521.71875 545.210938 C 511.976562 543.074219 500.574219 535.46875 493.917969 527.390625 C 487.265625 519.3125 484.890625 507.90625 481.324219 497.210938 C 477.285156 485.09375 474.195312 472.023438 471.820312 458.71875 C 468.96875 443.984375 467.070312 428.539062 465.40625 412.382812 C 463.503906 394.5625 461.839844 376.027344 461.128906 356.066406 C 460.414062 333.257812 460.890625 300.464844 462.316406 282.882812 C 463.027344 272.902344 465.167969 267.4375 465.644531 259.59375 C 465.878906 251.753906 462.316406 239.871094 464.691406 235.59375 C 466.117188 233.21875 468.730469 232.507812 471.34375 232.03125 C 474.433594 231.554688 479.425781 232.03125 482.277344 233.21875 C 484.890625 234.167969 486.789062 235.832031 488.214844 238.207031 C 489.878906 240.824219 491.066406 245.8125 491.066406 248.902344 C 490.832031 251.515625 490.117188 253.417969 488.453125 256.03125 C 485.128906 260.78125 477.761719 262.921875 470.15625 272.664062 C 444.257812 304.980469 364.894531 474.640625 337.804688 506.71875 C 329.25 516.695312 324.496094 521.449219 317.367188 523.351562 C 311.667969 525.25 304.773438 524.539062 299.785156 521.449219 C 293.132812 517.648438 287.90625 507.667969 283.628906 499.113281 C 278.875 489.609375 276.5 478.679688 273.886719 466.558594 C 270.558594 451.351562 268.417969 435.195312 267.230469 414.519531 C 265.566406 385.058594 266.042969 334.683594 268.183594 305.453125 C 269.609375 285.734375 279.351562 257.21875 275.3125 255.792969 C 271.269531 253.890625 251.3125 286.207031 241.09375 302.367188 C 231.113281 318.523438 222.558594 335.394531 214.242188 352.503906 C 205.925781 369.613281 199.511719 383.632812 191.429688 404.542969 C 179.550781 435.90625 163.390625 508.144531 152.9375 522.398438 C 149.847656 526.675781 147.234375 527.628906 144.144531 528.578125 C 141.054688 529.289062 136.542969 528.816406 133.691406 527.390625 C 130.601562 525.726562 127.75 522.398438 126.5625 519.3125 C 125.375 516.222656 125.375 511.46875 126.5625 508.855469 C 127.273438 506.953125 129.414062 506.953125 130.839844 504.816406 C 133.691406 500.539062 135.355469 493.886719 139.15625 482.71875 C 150.085938 448.976562 187.390625 299.039062 197.609375 277.414062 C 199.75 272.902344 200.460938 271.476562 202.835938 269.8125 C 205.214844 268.386719 208.777344 267.4375 211.628906 267.671875 C 214.480469 268.148438 217.808594 269.574219 219.707031 271.949219 C 221.847656 274.5625 222.558594 283.59375 222.558594 283.59375 " clip-rule="nonzero"/></clipPath><clipPath id="ef30bb6d39"><path d="M 0.28125 0 L 512 0 L 512 317 L 0.28125 317 Z M 0.28125 0 " clip-rule="nonzero"/></clipPath><clipPath id="ced1e458bf"><path d="M 97.558594 53.59375 C 69.996094 166.226562 50.75 234.183594 41.957031 261.035156 C 38.15625 272.675781 36.015625 280.042969 32.691406 286.222656 C 30.3125 290.261719 28.414062 293.113281 25.5625 295.25 C 22.710938 297.152344 18.671875 298.816406 15.582031 299.054688 C 12.96875 299.054688 10.828125 298.578125 8.691406 297.390625 C 6.078125 295.726562 2.75 292.164062 1.5625 289.3125 C 0.609375 287.171875 0.375 285.984375 0.609375 282.421875 C 2.035156 266.738281 26.273438 196.164062 37.917969 164.5625 C 46.234375 142.9375 53.125 128.207031 61.679688 110.382812 C 70.234375 92.5625 80.214844 73.554688 89.71875 58.109375 C 97.558594 45.515625 105.164062 33.871094 113.242188 24.128906 C 119.65625 16.050781 124.886719 6.546875 132.964844 3.21875 C 141.042969 -0.109375 154.585938 0.128906 161.714844 3.933594 C 167.65625 7.257812 170.984375 12.484375 173.835938 22.226562 C 181.914062 49.078125 170.507812 146.738281 173.121094 184.757812 C 174.308594 205.433594 176.210938 218.976562 179.300781 232.519531 C 181.675781 242.976562 182.390625 259.371094 188.328125 259.847656 C 205.675781 261.507812 291.21875 61.433594 318.304688 26.269531 C 327.097656 14.625 333.515625 9.632812 339.691406 5.59375 C 343.492188 3.21875 346.820312 1.792969 350.148438 1.554688 C 352.761719 1.316406 355.136719 1.792969 357.277344 3.21875 C 360.128906 4.882812 363.453125 8.683594 364.878906 11.535156 C 366.066406 13.910156 366.304688 16.289062 366.066406 18.902344 C 365.355469 21.992188 361.316406 29.121094 360.839844 28.882812 C 360.601562 28.644531 364.640625 12.484375 366.066406 12.484375 C 367.730469 12.484375 369.394531 22.941406 370.34375 31.96875 C 372.007812 51.691406 367.019531 99.214844 367.730469 126.304688 C 368.207031 146.738281 370.105469 162.898438 372.007812 180.007812 C 373.671875 195.453125 374.621094 208.757812 378.1875 224.203125 C 381.988281 242.5 385.550781 275.054688 395.292969 282.183594 C 401.234375 286.695312 409.3125 285.507812 417.394531 281.945312 C 431.886719 275.765625 458.027344 244.640625 467.769531 230.382812 C 473.234375 222.066406 475.132812 216.363281 477.511719 208.285156 C 479.886719 199.492188 481.3125 188.324219 481.789062 179.292969 C 482.023438 171.453125 482.976562 163.136719 480.363281 156.957031 C 477.984375 151.253906 472.996094 146.503906 468.007812 142.9375 C 462.539062 139.136719 454.699219 136.523438 448.519531 135.097656 C 443.054688 133.671875 438.304688 134.859375 432.839844 133.910156 C 426.421875 132.484375 416.441406 129.871094 412.878906 126.542969 C 410.738281 124.878906 410.027344 122.742188 409.789062 120.601562 C 409.3125 118.464844 409.789062 115.851562 410.976562 113.949219 C 411.929688 112.046875 414.066406 110.148438 415.96875 109.195312 C 417.867188 108.246094 420.71875 108.007812 422.859375 108.722656 C 424.757812 109.195312 427.375 110.382812 428.5625 112.285156 C 430.226562 114.425781 431.414062 119.175781 430.460938 122.027344 C 429.75 124.878906 426.421875 128.207031 423.570312 129.15625 C 420.71875 130.105469 415.96875 129.15625 413.589844 127.492188 C 411.453125 125.59375 409.3125 121.078125 409.550781 118.226562 C 409.789062 115.375 411.929688 111.574219 415.015625 109.671875 C 419.292969 107.058594 429.035156 107.53125 436.164062 107.769531 C 443.53125 108.007812 450.898438 108.957031 458.738281 111.335938 C 468.007812 114.1875 479.886719 118.464844 488.203125 125.117188 C 496.519531 131.769531 504.597656 141.75 508.402344 151.730469 C 512.203125 161.472656 511.726562 172.640625 511.488281 183.570312 C 511.015625 195.691406 509.113281 209.234375 505.550781 220.640625 C 502.222656 231.570312 496.996094 242.023438 491.292969 250.816406 C 486.066406 258.894531 479.648438 264.597656 472.996094 271.726562 C 465.867188 279.332031 458.261719 288.121094 450.183594 294.777344 C 442.34375 301.429688 434.027344 309.035156 424.996094 312.359375 C 416.207031 315.6875 405.75 317.351562 396.71875 315.210938 C 386.976562 313.074219 375.574219 305.46875 368.917969 297.390625 C 362.265625 289.3125 359.890625 277.90625 356.324219 267.210938 C 352.285156 255.09375 349.195312 242.023438 346.820312 228.71875 C 343.96875 213.984375 342.070312 198.539062 340.40625 182.382812 C 338.503906 164.5625 336.839844 146.027344 336.128906 126.066406 C 335.414062 103.257812 335.890625 70.464844 337.316406 52.882812 C 338.027344 42.902344 340.167969 37.4375 340.644531 29.59375 C 340.878906 21.753906 337.316406 9.871094 339.691406 5.59375 C 341.117188 3.21875 343.730469 2.507812 346.34375 2.03125 C 349.433594 1.554688 354.425781 2.03125 357.277344 3.21875 C 359.890625 4.167969 361.789062 5.832031 363.214844 8.207031 C 364.878906 10.824219 366.066406 15.8125 366.066406 18.902344 C 365.832031 21.515625 365.117188 23.417969 363.453125 26.03125 C 360.128906 30.78125 352.761719 32.921875 345.15625 42.664062 C 319.257812 74.980469 239.894531 244.640625 212.804688 276.71875 C 204.25 286.695312 199.496094 291.449219 192.367188 293.351562 C 186.667969 295.25 179.773438 294.539062 174.785156 291.449219 C 168.132812 287.648438 162.90625 277.667969 158.628906 269.113281 C 153.875 259.609375 151.5 248.679688 148.886719 236.558594 C 145.558594 221.351562 143.417969 205.195312 142.230469 184.519531 C 140.566406 155.058594 141.042969 104.683594 143.183594 75.453125 C 144.609375 55.734375 154.351562 27.21875 150.3125 25.792969 C 146.269531 23.890625 126.3125 56.207031 116.09375 72.367188 C 106.113281 88.523438 97.558594 105.394531 89.242188 122.503906 C 80.925781 139.613281 74.511719 153.632812 66.429688 174.542969 C 54.550781 205.90625 38.390625 278.144531 27.9375 292.398438 C 24.847656 296.675781 22.234375 297.628906 19.144531 298.578125 C 16.054688 299.289062 11.542969 298.816406 8.691406 297.390625 C 5.601562 295.726562 2.75 292.398438 1.5625 289.3125 C 0.375 286.222656 0.375 281.46875 1.5625 278.855469 C 2.273438 276.953125 4.414062 276.953125 5.839844 274.816406 C 8.691406 270.539062 10.355469 263.886719 14.15625 252.71875 C 25.085938 218.976562 62.390625 69.039062 72.609375 47.414062 C 74.75 42.902344 75.460938 41.476562 77.835938 39.8125 C 80.214844 38.386719 83.777344 37.4375 86.628906 37.671875 C 89.480469 38.148438 92.808594 39.574219 94.707031 41.949219 C 96.847656 44.5625 97.558594 53.59375 97.558594 53.59375 " clip-rule="nonzero"/></clipPath><clipPath id="1c5ba98c7c"><rect x="0" width="512" y="0" height="317"/></clipPath></defs><g transform="matrix(1, 0, 0, 1, 28, -0.000000000000057351)"><g clip-path="url(#f298fe4b8e)"><g fill="#ff914d" fill-opacity="1"><g transform="translate(39.003625, 707.738449)"><g><path d="M -32.84375 -324.035156 C -32.84375 -382.242188 -22.832031 -433.277344 -2.8125 -477.132812 C 17.222656 -521.019531 44.289062 -557.460938 78.386719 -586.460938 C 112.328125 -615.328125 150.238281 -637.054688 192.113281 -651.648438 C 233.894531 -666.210938 276.628906 -673.488281 320.320312 -673.488281 C 361.46875 -673.488281 401.664062 -667.160156 440.910156 -654.5 C 480.261719 -641.804688 516.4375 -622.609375 549.433594 -596.910156 C 582.539062 -571.125 609.902344 -538.996094 631.519531 -500.53125 C 653.160156 -462.023438 666.519531 -417.09375 671.589844 -365.746094 L 672.535156 -356.183594 L 414.167969 -356.183594 L 412.277344 -362.328125 C 405.445312 -384.53125 394.046875 -401.09375 378.078125 -412.019531 C 361.917969 -423.078125 344.832031 -428.605469 326.820312 -428.605469 C 304.28125 -428.605469 283.46875 -420.058594 264.386719 -402.972656 C 245.582031 -386.132812 236.179688 -359.820312 236.179688 -324.035156 C 236.757812 -288.882812 246.328125 -262.867188 264.898438 -245.984375 C 283.664062 -228.925781 304.304688 -220.394531 326.820312 -220.394531 C 345.429688 -220.394531 363.117188 -226.222656 379.882812 -237.871094 C 396.355469 -249.316406 407.417969 -266.363281 413.082031 -289.007812 L 414.730469 -295.601562 L 672.417969 -295.601562 L 671.601562 -286.148438 C 667.160156 -234.761719 654.109375 -189.796875 632.449219 -151.253906 C 610.832031 -112.789062 583.46875 -80.660156 550.359375 -54.875 C 517.375 -29.1875 481.0625 -9.839844 441.414062 3.164062 C 401.847656 16.140625 361.171875 22.632812 319.394531 22.632812 C 275.722656 22.632812 233.003906 15.511719 191.242188 1.273438 C 149.332031 -13.011719 111.546875 -34.601562 77.890625 -63.496094 C 44.125 -92.484375 17.226562 -128.757812 -2.800781 -172.308594 C -22.832031 -215.863281 -32.84375 -266.4375 -32.84375 -324.035156 Z M -15.4375 -324.035156 C -15.4375 -268.980469 -5.953125 -220.828125 13.015625 -179.582031 C 31.984375 -138.335938 57.386719 -104.042969 89.230469 -76.703125 C 121.1875 -49.269531 157.066406 -28.769531 196.859375 -15.203125 C 236.800781 -1.585938 277.644531 5.222656 319.394531 5.222656 C 359.320312 5.222656 398.183594 -0.976562 435.988281 -13.378906 C 473.714844 -25.75 508.273438 -44.164062 539.664062 -68.609375 C 570.929688 -92.960938 596.796875 -123.351562 617.273438 -159.78125 C 637.703125 -196.136719 650.03125 -238.757812 654.253906 -287.648438 L 662.925781 -286.898438 L 662.925781 -278.191406 L 421.527344 -278.191406 L 421.527344 -286.898438 L 429.96875 -284.785156 C 423.25 -257.914062 409.867188 -237.507812 389.816406 -223.578125 C 370.066406 -209.851562 349.066406 -202.988281 326.820312 -202.988281 C 299.820312 -202.988281 275.273438 -213.027344 253.1875 -233.105469 C 230.902344 -253.363281 219.429688 -283.671875 218.769531 -324.035156 C 218.769531 -365.007812 230.105469 -395.640625 252.773438 -415.941406 C 275.160156 -435.988281 299.84375 -446.015625 326.820312 -446.015625 C 348.425781 -446.015625 368.785156 -439.472656 387.910156 -426.386719 C 407.222656 -413.171875 420.890625 -393.527344 428.917969 -367.449219 L 420.597656 -364.890625 L 420.597656 -373.59375 L 662.925781 -373.59375 L 662.925781 -364.890625 L 654.265625 -364.03125 C 649.433594 -412.960938 636.792969 -455.617188 616.34375 -492.003906 C 595.871094 -528.433594 570 -558.824219 538.734375 -583.175781 C 507.355469 -607.613281 472.96875 -625.867188 435.566406 -637.929688 C 398.058594 -650.03125 359.644531 -656.082031 320.320312 -656.082031 C 278.59375 -656.082031 237.769531 -649.125 197.84375 -635.210938 C 158.015625 -621.332031 121.957031 -600.660156 89.664062 -573.199219 C 57.535156 -545.871094 31.988281 -511.441406 13.023438 -469.90625 C -5.949219 -428.34375 -15.4375 -379.71875 -15.4375 -324.035156 Z M -15.4375 -324.035156 "/></g></g></g></g></g><g clip-path="url(#b52238d77e)"><g clip-path="url(#eba2c8de49)"><g transform="matrix(1, 0, 0, 1, 176, 223)"><g clip-path="url(#66de0e5c46)"><g clip-path="url(#fedf03612f)"><g clip-path="url(#89c4c8766a)"><path fill="#ff914d" d="M 0.597656 0.964844 L 329.671875 0.964844 L 329.671875 330.039062 L 0.597656 330.039062 Z M 0.597656 0.964844 " fill-opacity="1" fill-rule="nonzero"/></g></g></g></g></g></g><g clip-path="url(#9662b289aa)"><g clip-path="url(#1d3fdfba24)"><g transform="matrix(1, 0, 0, 1, 125, 230)"><g clip-path="url(#1c5ba98c7c)"><g clip-path="url(#ef30bb6d39)"><g clip-path="url(#ced1e458bf)"><rect x="-293.96" width="1105.92" fill="#004aad" height="1105.919991" y="-398.959999" fill-opacity="1"/></g></g></g></g></g></g></svg>