<svg xmlns="http://www.w3.org/2000/svg" xmlns:xlink="http://www.w3.org/1999/xlink" width="1024" zoomAndPan="magnify" viewBox="0 0 768 767.999994" height="1024" preserveAspectRatio="xMidYMid meet" version="1.0"><defs><filter x="0%" y="0%" width="100%" height="100%" id="bfbd55916d"><feColorMatrix values="0 0 0 0 1 0 0 0 0 1 0 0 0 0 1 0 0 0 1 0" color-interpolation-filters="sRGB"/></filter><g/><clipPath id="59ad25c62b"><rect x="0" width="768" y="0" height="768"/></clipPath><clipPath id="2757fc078b"><rect x="0" width="768" y="0" height="768"/></clipPath><mask id="3645201a43"><g filter="url(#bfbd55916d)"><g transform="matrix(1, 0, 0, 1, 0, -0.000000000000057351)"><g clip-path="url(#2757fc078b)"><g transform="matrix(1, 0, 0, 1, 0, -0.000000000000057351)"><g clip-path="url(#59ad25c62b)"><g fill="#000000" fill-opacity="1"><g transform="translate(128.053177, 697.874985)"><g><path d="M 123.109375 -12.3125 L 123.109375 -26.5625 C 123.109375 -34.769531 119.003906 -38.875 110.796875 -38.875 L 96.546875 -38.875 C 88.335938 -38.875 84.234375 -42.976562 84.234375 -51.1875 L 84.234375 -65.4375 C 84.234375 -73.644531 80.128906 -77.75 71.921875 -77.75 L 57.671875 -77.75 C 49.460938 -77.75 45.359375 -81.851562 45.359375 -90.0625 L 45.359375 -516.421875 C 45.359375 -524.628906 49.460938 -528.734375 57.671875 -528.734375 L 71.921875 -528.734375 C 80.128906 -528.734375 84.234375 -532.835938 84.234375 -541.046875 L 84.234375 -555.296875 C 84.234375 -563.503906 88.335938 -567.609375 96.546875 -567.609375 L 110.796875 -567.609375 C 119.003906 -567.609375 123.109375 -571.710938 123.109375 -579.921875 L 123.109375 -594.171875 C 123.109375 -602.378906 127.210938 -606.484375 135.421875 -606.484375 L 411.453125 -606.484375 C 420.085938 -606.484375 424.40625 -602.164062 424.40625 -593.53125 L 424.40625 -580.5625 C 424.40625 -571.925781 428.726562 -567.609375 437.375 -567.609375 L 460.046875 -567.609375 C 468.679688 -567.609375 473 -563.285156 473 -554.640625 L 473 -444.5 C 473 -435.851562 468.679688 -431.53125 460.046875 -431.53125 L 349.890625 -431.53125 C 341.253906 -431.53125 336.9375 -435.851562 336.9375 -444.5 L 336.9375 -458.109375 C 336.9375 -466.304688 332.832031 -470.40625 324.625 -470.40625 L 311.015625 -470.40625 C 302.378906 -470.40625 298.0625 -474.726562 298.0625 -483.375 L 298.0625 -555.296875 C 298.0625 -563.503906 293.957031 -567.609375 285.75 -567.609375 L 271.5 -567.609375 C 263.289062 -567.609375 259.1875 -563.503906 259.1875 -555.296875 L 259.1875 -541.046875 C 259.1875 -532.835938 255.082031 -528.734375 246.875 -528.734375 L 232.609375 -528.734375 C 224.398438 -528.734375 220.296875 -524.628906 220.296875 -516.421875 L 220.296875 -90.0625 C 220.296875 -81.851562 224.398438 -77.75 232.609375 -77.75 L 246.875 -77.75 C 255.082031 -77.75 259.1875 -73.644531 259.1875 -65.4375 L 259.1875 -51.1875 C 259.1875 -42.976562 263.289062 -38.875 271.5 -38.875 L 285.75 -38.875 C 293.957031 -38.875 298.0625 -42.976562 298.0625 -51.1875 L 298.0625 -161.984375 C 298.0625 -170.628906 302.378906 -174.953125 311.015625 -174.953125 L 460.046875 -174.953125 C 468.679688 -174.953125 473 -170.628906 473 -161.984375 L 473 -51.84375 C 473 -43.195312 468.679688 -38.875 460.046875 -38.875 L 447.09375 -38.875 C 438.445312 -38.875 434.125 -34.554688 434.125 -25.921875 L 434.125 -12.953125 C 434.125 -4.316406 429.804688 0 421.171875 0 L 135.421875 0 C 127.210938 0 123.109375 -4.101562 123.109375 -12.3125 Z M 123.109375 -12.3125 "/></g></g></g><g fill="#000000" fill-opacity="1"><g transform="translate(639.939867, 697.874985)"><g/></g></g></g></g></g></g></g></mask><clipPath id="cad09dd541"><path d="M 0 0 L 768 0 L 768 768 L 0 768 Z M 0 0 " clip-rule="nonzero"/></clipPath><linearGradient x1="109.082161" gradientTransform="matrix(0.749953, 0, 0, 0.750046, -81.806477, 11.614004)" y1="496.5" x2="1133.146455" gradientUnits="userSpaceOnUse" y2="496.5" id="d69d82b782"><stop stop-opacity="1" stop-color="rgb(0%, 0%, 0%)" offset="0"/><stop stop-opacity="1" stop-color="rgb(0%, 0%, 0%)" offset="0.125"/><stop stop-opacity="1" stop-color="rgb(0%, 0%, 0%)" offset="0.15625"/><stop stop-opacity="1" stop-color="rgb(0.190735%, 0.190735%, 0.190735%)" offset="0.171875"/><stop stop-opacity="1" stop-color="rgb(0.646973%, 0.646973%, 0.646973%)" offset="0.175781"/><stop stop-opacity="1" stop-color="rgb(0.91095%, 0.91095%, 0.91095%)" offset="0.179688"/><stop stop-opacity="1" stop-color="rgb(1.174927%, 1.174927%, 1.174927%)" offset="0.183594"/><stop stop-opacity="1" stop-color="rgb(1.438904%, 1.438904%, 1.438904%)" offset="0.1875"/><stop stop-opacity="1" stop-color="rgb(1.702881%, 1.702881%, 1.702881%)" offset="0.191406"/><stop stop-opacity="1" stop-color="rgb(1.968384%, 1.968384%, 1.968384%)" offset="0.195312"/><stop stop-opacity="1" stop-color="rgb(2.232361%, 2.232361%, 2.232361%)" offset="0.199219"/><stop stop-opacity="1" stop-color="rgb(2.496338%, 2.496338%, 2.496338%)" offset="0.203125"/><stop stop-opacity="1" stop-color="rgb(2.760315%, 2.760315%, 2.760315%)" offset="0.207031"/><stop stop-opacity="1" stop-color="rgb(3.025818%, 3.025818%, 3.025818%)" offset="0.210938"/><stop stop-opacity="1" stop-color="rgb(3.289795%, 3.289795%, 3.289795%)" offset="0.214844"/><stop stop-opacity="1" stop-color="rgb(3.553772%, 3.553772%, 3.553772%)" offset="0.21875"/><stop stop-opacity="1" stop-color="rgb(3.817749%, 3.817749%, 3.817749%)" offset="0.222656"/><stop stop-opacity="1" stop-color="rgb(4.083252%, 4.083252%, 4.083252%)" offset="0.226562"/><stop stop-opacity="1" stop-color="rgb(4.347229%, 4.347229%, 4.347229%)" offset="0.230469"/><stop stop-opacity="1" stop-color="rgb(4.611206%, 4.611206%, 4.611206%)" offset="0.234375"/><stop stop-opacity="1" stop-color="rgb(4.875183%, 4.875183%, 4.875183%)" offset="0.238281"/><stop stop-opacity="1" stop-color="rgb(5.140686%, 5.140686%, 5.140686%)" offset="0.242188"/><stop stop-opacity="1" stop-color="rgb(5.404663%, 5.404663%, 5.404663%)" offset="0.246094"/><stop stop-opacity="1" stop-color="rgb(5.66864%, 5.66864%, 5.66864%)" offset="0.25"/><stop stop-opacity="1" stop-color="rgb(5.932617%, 5.932617%, 5.932617%)" offset="0.253906"/><stop stop-opacity="1" stop-color="rgb(6.19812%, 6.19812%, 6.19812%)" offset="0.257812"/><stop stop-opacity="1" stop-color="rgb(6.462097%, 6.462097%, 6.462097%)" offset="0.261719"/><stop stop-opacity="1" stop-color="rgb(6.726074%, 6.726074%, 6.726074%)" offset="0.265625"/><stop stop-opacity="1" stop-color="rgb(6.990051%, 6.990051%, 6.990051%)" offset="0.269531"/><stop stop-opacity="1" stop-color="rgb(7.255554%, 7.255554%, 7.255554%)" offset="0.273438"/><stop stop-opacity="1" stop-color="rgb(7.519531%, 7.519531%, 7.519531%)" offset="0.277344"/><stop stop-opacity="1" stop-color="rgb(7.783508%, 7.783508%, 7.783508%)" offset="0.28125"/><stop stop-opacity="1" stop-color="rgb(8.047485%, 8.047485%, 8.047485%)" offset="0.285156"/><stop stop-opacity="1" stop-color="rgb(8.312988%, 8.312988%, 8.312988%)" offset="0.289062"/><stop stop-opacity="1" stop-color="rgb(8.576965%, 8.576965%, 8.576965%)" offset="0.292969"/><stop stop-opacity="1" stop-color="rgb(8.840942%, 8.840942%, 8.840942%)" offset="0.296875"/><stop stop-opacity="1" stop-color="rgb(9.104919%, 9.104919%, 9.104919%)" offset="0.300781"/><stop stop-opacity="1" stop-color="rgb(9.368896%, 9.368896%, 9.368896%)" offset="0.304688"/><stop stop-opacity="1" stop-color="rgb(9.632874%, 9.632874%, 9.632874%)" offset="0.308594"/><stop stop-opacity="1" stop-color="rgb(9.898376%, 9.898376%, 9.898376%)" offset="0.3125"/><stop stop-opacity="1" stop-color="rgb(10.162354%, 10.162354%, 10.162354%)" offset="0.316406"/><stop stop-opacity="1" stop-color="rgb(10.426331%, 10.426331%, 10.426331%)" offset="0.320312"/><stop stop-opacity="1" stop-color="rgb(10.690308%, 10.690308%, 10.690308%)" offset="0.324219"/><stop stop-opacity="1" stop-color="rgb(10.955811%, 10.955811%, 10.955811%)" offset="0.328125"/><stop stop-opacity="1" stop-color="rgb(11.219788%, 11.219788%, 11.219788%)" offset="0.332031"/><stop stop-opacity="1" stop-color="rgb(11.483765%, 11.483765%, 11.483765%)" offset="0.335938"/><stop stop-opacity="1" stop-color="rgb(11.747742%, 11.747742%, 11.747742%)" offset="0.339844"/><stop stop-opacity="1" stop-color="rgb(12.013245%, 12.013245%, 12.013245%)" offset="0.34375"/><stop stop-opacity="1" stop-color="rgb(12.277222%, 12.277222%, 12.277222%)" offset="0.347656"/><stop stop-opacity="1" stop-color="rgb(12.541199%, 12.541199%, 12.541199%)" offset="0.351563"/><stop stop-opacity="1" stop-color="rgb(12.805176%, 12.805176%, 12.805176%)" offset="0.355469"/><stop stop-opacity="1" stop-color="rgb(13.070679%, 13.070679%, 13.070679%)" offset="0.359375"/><stop stop-opacity="1" stop-color="rgb(13.334656%, 13.334656%, 13.334656%)" offset="0.363281"/><stop stop-opacity="1" stop-color="rgb(13.598633%, 13.598633%, 13.598633%)" offset="0.367188"/><stop stop-opacity="1" stop-color="rgb(13.86261%, 13.86261%, 13.86261%)" offset="0.371094"/><stop stop-opacity="1" stop-color="rgb(14.128113%, 14.128113%, 14.128113%)" offset="0.375"/><stop stop-opacity="1" stop-color="rgb(14.39209%, 14.39209%, 14.39209%)" offset="0.378906"/><stop stop-opacity="1" stop-color="rgb(14.656067%, 14.656067%, 14.656067%)" offset="0.382812"/><stop stop-opacity="1" stop-color="rgb(14.920044%, 14.920044%, 14.920044%)" offset="0.386719"/><stop stop-opacity="1" stop-color="rgb(15.185547%, 15.185547%, 15.185547%)" offset="0.390625"/><stop stop-opacity="1" stop-color="rgb(15.449524%, 15.449524%, 15.449524%)" offset="0.394531"/><stop stop-opacity="1" stop-color="rgb(15.713501%, 15.713501%, 15.713501%)" offset="0.398438"/><stop stop-opacity="1" stop-color="rgb(15.977478%, 15.977478%, 15.977478%)" offset="0.402344"/><stop stop-opacity="1" stop-color="rgb(16.241455%, 16.241455%, 16.241455%)" offset="0.40625"/><stop stop-opacity="1" stop-color="rgb(16.505432%, 16.505432%, 16.505432%)" offset="0.410156"/><stop stop-opacity="1" stop-color="rgb(16.770935%, 16.770935%, 16.770935%)" offset="0.414062"/><stop stop-opacity="1" stop-color="rgb(17.034912%, 17.034912%, 17.034912%)" offset="0.417969"/><stop stop-opacity="1" stop-color="rgb(17.298889%, 17.298889%, 17.298889%)" offset="0.421875"/><stop stop-opacity="1" stop-color="rgb(17.562866%, 17.562866%, 17.562866%)" offset="0.425781"/><stop stop-opacity="1" stop-color="rgb(17.828369%, 17.828369%, 17.828369%)" offset="0.429688"/><stop stop-opacity="1" stop-color="rgb(18.092346%, 18.092346%, 18.092346%)" offset="0.433594"/><stop stop-opacity="1" stop-color="rgb(18.356323%, 18.356323%, 18.356323%)" offset="0.4375"/><stop stop-opacity="1" stop-color="rgb(18.6203%, 18.6203%, 18.6203%)" offset="0.441406"/><stop stop-opacity="1" stop-color="rgb(18.885803%, 18.885803%, 18.885803%)" offset="0.445313"/><stop stop-opacity="1" stop-color="rgb(19.14978%, 19.14978%, 19.14978%)" offset="0.449219"/><stop stop-opacity="1" stop-color="rgb(19.413757%, 19.413757%, 19.413757%)" offset="0.453125"/><stop stop-opacity="1" stop-color="rgb(19.677734%, 19.677734%, 19.677734%)" offset="0.457031"/><stop stop-opacity="1" stop-color="rgb(19.943237%, 19.943237%, 19.943237%)" offset="0.460938"/><stop stop-opacity="1" stop-color="rgb(20.207214%, 20.207214%, 20.207214%)" offset="0.464844"/><stop stop-opacity="1" stop-color="rgb(20.471191%, 20.471191%, 20.471191%)" offset="0.46875"/><stop stop-opacity="1" stop-color="rgb(20.735168%, 20.735168%, 20.735168%)" offset="0.472656"/><stop stop-opacity="1" stop-color="rgb(21.000671%, 21.000671%, 21.000671%)" offset="0.476562"/><stop stop-opacity="1" stop-color="rgb(21.264648%, 21.264648%, 21.264648%)" offset="0.480469"/><stop stop-opacity="1" stop-color="rgb(21.528625%, 21.528625%, 21.528625%)" offset="0.484375"/><stop stop-opacity="1" stop-color="rgb(21.792603%, 21.792603%, 21.792603%)" offset="0.488281"/><stop stop-opacity="1" stop-color="rgb(22.058105%, 22.058105%, 22.058105%)" offset="0.492188"/><stop stop-opacity="1" stop-color="rgb(22.322083%, 22.322083%, 22.322083%)" offset="0.496094"/><stop stop-opacity="1" stop-color="rgb(22.58606%, 22.58606%, 22.58606%)" offset="0.5"/><stop stop-opacity="1" stop-color="rgb(22.850037%, 22.850037%, 22.850037%)" offset="0.503906"/><stop stop-opacity="1" stop-color="rgb(23.11554%, 23.11554%, 23.11554%)" offset="0.507813"/><stop stop-opacity="1" stop-color="rgb(23.379517%, 23.379517%, 23.379517%)" offset="0.511719"/><stop stop-opacity="1" stop-color="rgb(23.643494%, 23.643494%, 23.643494%)" offset="0.515625"/><stop stop-opacity="1" stop-color="rgb(23.907471%, 23.907471%, 23.907471%)" offset="0.519531"/><stop stop-opacity="1" stop-color="rgb(24.171448%, 24.171448%, 24.171448%)" offset="0.523438"/><stop stop-opacity="1" stop-color="rgb(24.435425%, 24.435425%, 24.435425%)" offset="0.527344"/><stop stop-opacity="1" stop-color="rgb(24.700928%, 24.700928%, 24.700928%)" offset="0.53125"/><stop stop-opacity="1" stop-color="rgb(24.964905%, 24.964905%, 24.964905%)" offset="0.535156"/><stop stop-opacity="1" stop-color="rgb(25.228882%, 25.228882%, 25.228882%)" offset="0.539062"/><stop stop-opacity="1" stop-color="rgb(25.492859%, 25.492859%, 25.492859%)" offset="0.542969"/><stop stop-opacity="1" stop-color="rgb(25.758362%, 25.758362%, 25.758362%)" offset="0.546875"/><stop stop-opacity="1" stop-color="rgb(26.022339%, 26.022339%, 26.022339%)" offset="0.550781"/><stop stop-opacity="1" stop-color="rgb(26.286316%, 26.286316%, 26.286316%)" offset="0.554688"/><stop stop-opacity="1" stop-color="rgb(26.550293%, 26.550293%, 26.550293%)" offset="0.558594"/><stop stop-opacity="1" stop-color="rgb(26.815796%, 26.815796%, 26.815796%)" offset="0.5625"/><stop stop-opacity="1" stop-color="rgb(27.079773%, 27.079773%, 27.079773%)" offset="0.566406"/><stop stop-opacity="1" stop-color="rgb(27.34375%, 27.34375%, 27.34375%)" offset="0.570312"/><stop stop-opacity="1" stop-color="rgb(27.607727%, 27.607727%, 27.607727%)" offset="0.574219"/><stop stop-opacity="1" stop-color="rgb(27.87323%, 27.87323%, 27.87323%)" offset="0.578125"/><stop stop-opacity="1" stop-color="rgb(28.137207%, 28.137207%, 28.137207%)" offset="0.582031"/><stop stop-opacity="1" stop-color="rgb(28.401184%, 28.401184%, 28.401184%)" offset="0.585938"/><stop stop-opacity="1" stop-color="rgb(28.665161%, 28.665161%, 28.665161%)" offset="0.589844"/><stop stop-opacity="1" stop-color="rgb(28.930664%, 28.930664%, 28.930664%)" offset="0.59375"/><stop stop-opacity="1" stop-color="rgb(29.194641%, 29.194641%, 29.194641%)" offset="0.597656"/><stop stop-opacity="1" stop-color="rgb(29.458618%, 29.458618%, 29.458618%)" offset="0.601562"/><stop stop-opacity="1" stop-color="rgb(29.722595%, 29.722595%, 29.722595%)" offset="0.605469"/><stop stop-opacity="1" stop-color="rgb(29.988098%, 29.988098%, 29.988098%)" offset="0.609375"/><stop stop-opacity="1" stop-color="rgb(30.252075%, 30.252075%, 30.252075%)" offset="0.613281"/><stop stop-opacity="1" stop-color="rgb(30.516052%, 30.516052%, 30.516052%)" offset="0.617188"/><stop stop-opacity="1" stop-color="rgb(30.780029%, 30.780029%, 30.780029%)" offset="0.621094"/><stop stop-opacity="1" stop-color="rgb(31.045532%, 31.045532%, 31.045532%)" offset="0.625"/><stop stop-opacity="1" stop-color="rgb(31.309509%, 31.309509%, 31.309509%)" offset="0.628906"/><stop stop-opacity="1" stop-color="rgb(31.573486%, 31.573486%, 31.573486%)" offset="0.632812"/><stop stop-opacity="1" stop-color="rgb(31.837463%, 31.837463%, 31.837463%)" offset="0.636719"/><stop stop-opacity="1" stop-color="rgb(32.10144%, 32.10144%, 32.10144%)" offset="0.640625"/><stop stop-opacity="1" stop-color="rgb(32.365417%, 32.365417%, 32.365417%)" offset="0.644531"/><stop stop-opacity="1" stop-color="rgb(32.63092%, 32.63092%, 32.63092%)" offset="0.648438"/><stop stop-opacity="1" stop-color="rgb(32.894897%, 32.894897%, 32.894897%)" offset="0.652344"/><stop stop-opacity="1" stop-color="rgb(33.158875%, 33.158875%, 33.158875%)" offset="0.65625"/><stop stop-opacity="1" stop-color="rgb(33.422852%, 33.422852%, 33.422852%)" offset="0.660156"/><stop stop-opacity="1" stop-color="rgb(33.688354%, 33.688354%, 33.688354%)" offset="0.664062"/><stop stop-opacity="1" stop-color="rgb(33.952332%, 33.952332%, 33.952332%)" offset="0.667969"/><stop stop-opacity="1" stop-color="rgb(34.216309%, 34.216309%, 34.216309%)" offset="0.671875"/><stop stop-opacity="1" stop-color="rgb(34.480286%, 34.480286%, 34.480286%)" offset="0.675781"/><stop stop-opacity="1" stop-color="rgb(34.745789%, 34.745789%, 34.745789%)" offset="0.679687"/><stop stop-opacity="1" stop-color="rgb(35.009766%, 35.009766%, 35.009766%)" offset="0.683594"/><stop stop-opacity="1" stop-color="rgb(35.273743%, 35.273743%, 35.273743%)" offset="0.6875"/><stop stop-opacity="1" stop-color="rgb(35.53772%, 35.53772%, 35.53772%)" offset="0.691406"/><stop stop-opacity="1" stop-color="rgb(35.803223%, 35.803223%, 35.803223%)" offset="0.695313"/><stop stop-opacity="1" stop-color="rgb(36.0672%, 36.0672%, 36.0672%)" offset="0.699219"/><stop stop-opacity="1" stop-color="rgb(36.331177%, 36.331177%, 36.331177%)" offset="0.703125"/><stop stop-opacity="1" stop-color="rgb(36.595154%, 36.595154%, 36.595154%)" offset="0.707031"/><stop stop-opacity="1" stop-color="rgb(36.860657%, 36.860657%, 36.860657%)" offset="0.710938"/><stop stop-opacity="1" stop-color="rgb(37.124634%, 37.124634%, 37.124634%)" offset="0.714844"/><stop stop-opacity="1" stop-color="rgb(37.388611%, 37.388611%, 37.388611%)" offset="0.71875"/><stop stop-opacity="1" stop-color="rgb(37.652588%, 37.652588%, 37.652588%)" offset="0.722656"/><stop stop-opacity="1" stop-color="rgb(37.918091%, 37.918091%, 37.918091%)" offset="0.726562"/><stop stop-opacity="1" stop-color="rgb(38.182068%, 38.182068%, 38.182068%)" offset="0.730469"/><stop stop-opacity="1" stop-color="rgb(38.446045%, 38.446045%, 38.446045%)" offset="0.734375"/><stop stop-opacity="1" stop-color="rgb(38.710022%, 38.710022%, 38.710022%)" offset="0.738281"/><stop stop-opacity="1" stop-color="rgb(38.975525%, 38.975525%, 38.975525%)" offset="0.742188"/><stop stop-opacity="1" stop-color="rgb(39.239502%, 39.239502%, 39.239502%)" offset="0.746094"/><stop stop-opacity="1" stop-color="rgb(39.503479%, 39.503479%, 39.503479%)" offset="0.75"/><stop stop-opacity="1" stop-color="rgb(39.767456%, 39.767456%, 39.767456%)" offset="0.753906"/><stop stop-opacity="1" stop-color="rgb(40.031433%, 40.031433%, 40.031433%)" offset="0.757812"/><stop stop-opacity="1" stop-color="rgb(40.29541%, 40.29541%, 40.29541%)" offset="0.761719"/><stop stop-opacity="1" stop-color="rgb(40.560913%, 40.560913%, 40.560913%)" offset="0.765625"/><stop stop-opacity="1" stop-color="rgb(40.82489%, 40.82489%, 40.82489%)" offset="0.769531"/><stop stop-opacity="1" stop-color="rgb(41.088867%, 41.088867%, 41.088867%)" offset="0.773438"/><stop stop-opacity="1" stop-color="rgb(41.352844%, 41.352844%, 41.352844%)" offset="0.777344"/><stop stop-opacity="1" stop-color="rgb(41.618347%, 41.618347%, 41.618347%)" offset="0.78125"/><stop stop-opacity="1" stop-color="rgb(41.882324%, 41.882324%, 41.882324%)" offset="0.785156"/><stop stop-opacity="1" stop-color="rgb(42.146301%, 42.146301%, 42.146301%)" offset="0.789062"/><stop stop-opacity="1" stop-color="rgb(42.410278%, 42.410278%, 42.410278%)" offset="0.792969"/><stop stop-opacity="1" stop-color="rgb(42.675781%, 42.675781%, 42.675781%)" offset="0.796875"/><stop stop-opacity="1" stop-color="rgb(42.939758%, 42.939758%, 42.939758%)" offset="0.800781"/><stop stop-opacity="1" stop-color="rgb(43.203735%, 43.203735%, 43.203735%)" offset="0.804688"/><stop stop-opacity="1" stop-color="rgb(43.467712%, 43.467712%, 43.467712%)" offset="0.808594"/><stop stop-opacity="1" stop-color="rgb(43.733215%, 43.733215%, 43.733215%)" offset="0.8125"/><stop stop-opacity="1" stop-color="rgb(43.997192%, 43.997192%, 43.997192%)" offset="0.816406"/><stop stop-opacity="1" stop-color="rgb(44.261169%, 44.261169%, 44.261169%)" offset="0.820313"/><stop stop-opacity="1" stop-color="rgb(44.525146%, 44.525146%, 44.525146%)" offset="0.824219"/><stop stop-opacity="1" stop-color="rgb(44.790649%, 44.790649%, 44.790649%)" offset="0.828125"/><stop stop-opacity="1" stop-color="rgb(44.944763%, 44.944763%, 44.944763%)" offset="0.84375"/><stop stop-opacity="1" stop-color="rgb(45.098877%, 45.098877%, 45.098877%)" offset="0.875"/><stop stop-opacity="1" stop-color="rgb(45.098877%, 45.098877%, 45.098877%)" offset="1"/></linearGradient><clipPath id="b2279ff993"><rect x="0" width="768" y="0" height="768"/></clipPath><clipPath id="a38bd26e2b"><rect x="0" width="768" y="0" height="768"/></clipPath><clipPath id="a7a78e0141"><path d="M 268.800781 268.800781 L 499.199219 268.800781 L 499.199219 499.199219 L 268.800781 499.199219 Z M 268.800781 268.800781 " clip-rule="nonzero"/></clipPath><clipPath id="1d11f6a6b4"><path d="M 431.699219 268.800781 L 499.199219 336.300781 L 499.199219 431.699219 L 431.699219 499.199219 L 336.300781 499.199219 L 268.800781 431.699219 L 268.800781 336.300781 L 336.300781 268.800781 Z M 431.699219 268.800781 " clip-rule="nonzero"/></clipPath><clipPath id="f687765cf1"><path d="M 0.800781 0.800781 L 231.199219 0.800781 L 231.199219 231.199219 L 0.800781 231.199219 Z M 0.800781 0.800781 " clip-rule="nonzero"/></clipPath><clipPath id="c9e2dac041"><path d="M 163.699219 0.800781 L 231.199219 68.300781 L 231.199219 163.699219 L 163.699219 231.199219 L 68.300781 231.199219 L 0.800781 163.699219 L 0.800781 68.300781 L 68.300781 0.800781 Z M 163.699219 0.800781 " clip-rule="nonzero"/></clipPath><clipPath id="ec8ba899a4"><rect x="0" width="232" y="0" height="232"/></clipPath><clipPath id="ba1479ef5e"><path d="M 303.25 334 L 464.964844 334 L 464.964844 434 L 303.25 434 Z M 303.25 334 " clip-rule="nonzero"/></clipPath><clipPath id="836dd6fea5"><path d="M 333.976562 350.886719 C 325.273438 386.4375 319.199219 407.886719 316.425781 416.363281 C 315.226562 420.039062 314.550781 422.363281 313.5 424.3125 C 312.75 425.585938 312.148438 426.488281 311.25 427.164062 C 310.351562 427.761719 309.074219 428.289062 308.101562 428.363281 C 307.273438 428.363281 306.601562 428.210938 305.925781 427.835938 C 305.101562 427.3125 304.050781 426.1875 303.675781 425.289062 C 303.375 424.613281 303.300781 424.238281 303.375 423.113281 C 303.824219 418.164062 311.476562 395.886719 315.148438 385.914062 C 317.773438 379.085938 319.949219 374.4375 322.648438 368.8125 C 325.351562 363.1875 328.5 357.1875 331.5 352.3125 C 333.976562 348.335938 336.375 344.664062 338.925781 341.585938 C 340.949219 339.039062 342.601562 336.039062 345.148438 334.988281 C 347.699219 333.9375 351.976562 334.011719 354.226562 335.210938 C 356.101562 336.261719 357.148438 337.914062 358.050781 340.988281 C 360.601562 349.460938 357 380.289062 357.824219 392.289062 C 358.199219 398.8125 358.800781 403.085938 359.773438 407.363281 C 360.523438 410.664062 360.75 415.835938 362.625 415.988281 C 368.101562 416.511719 395.101562 353.363281 403.648438 342.261719 C 406.425781 338.585938 408.449219 337.011719 410.398438 335.738281 C 411.601562 334.988281 412.648438 334.539062 413.699219 334.460938 C 414.523438 334.386719 415.273438 334.539062 415.949219 334.988281 C 416.851562 335.511719 417.898438 336.710938 418.351562 337.613281 C 418.726562 338.363281 418.800781 339.113281 418.726562 339.9375 C 418.5 340.914062 417.226562 343.164062 417.074219 343.085938 C 417 343.011719 418.273438 337.914062 418.726562 337.914062 C 419.25 337.914062 419.773438 341.210938 420.074219 344.0625 C 420.601562 350.289062 419.023438 365.289062 419.25 373.835938 C 419.398438 380.289062 420 385.386719 420.601562 390.789062 C 421.125 395.664062 421.425781 399.863281 422.550781 404.738281 C 423.75 410.511719 424.875 420.789062 427.949219 423.039062 C 429.824219 424.460938 432.375 424.085938 434.925781 422.960938 C 439.5 421.011719 447.75 411.1875 450.824219 406.6875 C 452.550781 404.0625 453.148438 402.261719 453.898438 399.710938 C 454.648438 396.9375 455.101562 393.414062 455.25 390.5625 C 455.324219 388.085938 455.625 385.460938 454.800781 383.511719 C 454.050781 381.710938 452.476562 380.210938 450.898438 379.085938 C 449.175781 377.886719 446.699219 377.0625 444.75 376.613281 C 443.023438 376.164062 441.523438 376.539062 439.800781 376.238281 C 437.773438 375.789062 434.625 374.960938 433.5 373.914062 C 432.824219 373.386719 432.601562 372.710938 432.523438 372.039062 C 432.375 371.363281 432.523438 370.539062 432.898438 369.9375 C 433.199219 369.335938 433.875 368.738281 434.476562 368.4375 C 435.074219 368.136719 435.976562 368.0625 436.648438 368.289062 C 437.25 368.4375 438.074219 368.8125 438.449219 369.414062 C 438.976562 370.085938 439.351562 371.585938 439.050781 372.488281 C 438.824219 373.386719 437.773438 374.4375 436.875 374.738281 C 435.976562 375.039062 434.476562 374.738281 433.726562 374.210938 C 433.050781 373.613281 432.375 372.1875 432.449219 371.289062 C 432.523438 370.386719 433.199219 369.1875 434.175781 368.585938 C 435.523438 367.761719 438.601562 367.914062 440.851562 367.988281 C 443.175781 368.0625 445.5 368.363281 447.976562 369.113281 C 450.898438 370.011719 454.648438 371.363281 457.273438 373.460938 C 459.898438 375.5625 462.449219 378.710938 463.648438 381.863281 C 464.851562 384.9375 464.699219 388.460938 464.625 391.914062 C 464.476562 395.738281 463.875 400.011719 462.75 403.613281 C 461.699219 407.0625 460.050781 410.363281 458.25 413.136719 C 456.601562 415.6875 454.574219 417.488281 452.476562 419.738281 C 450.226562 422.136719 447.824219 424.914062 445.273438 427.011719 C 442.800781 429.113281 440.175781 431.511719 437.324219 432.5625 C 434.550781 433.613281 431.25 434.136719 428.398438 433.460938 C 425.324219 432.789062 421.726562 430.386719 419.625 427.835938 C 417.523438 425.289062 416.773438 421.6875 415.648438 418.3125 C 414.375 414.488281 413.398438 410.363281 412.648438 406.164062 C 411.75 401.511719 411.148438 396.636719 410.625 391.539062 C 410.023438 385.914062 409.5 380.0625 409.273438 373.761719 C 409.050781 366.5625 409.199219 356.210938 409.648438 350.664062 C 409.875 347.511719 410.550781 345.789062 410.699219 343.3125 C 410.773438 340.835938 409.648438 337.085938 410.398438 335.738281 C 410.851562 334.988281 411.675781 334.761719 412.5 334.613281 C 413.476562 334.460938 415.050781 334.613281 415.949219 334.988281 C 416.773438 335.289062 417.375 335.8125 417.824219 336.5625 C 418.351562 337.386719 418.726562 338.960938 418.726562 339.9375 C 418.648438 340.761719 418.425781 341.363281 417.898438 342.1875 C 416.851562 343.6875 414.523438 344.363281 412.125 347.4375 C 403.949219 357.636719 378.898438 411.1875 370.351562 421.3125 C 367.648438 424.460938 366.148438 425.960938 363.898438 426.5625 C 362.101562 427.164062 359.925781 426.9375 358.351562 425.960938 C 356.25 424.761719 354.601562 421.613281 353.25 418.914062 C 351.75 415.914062 351 412.460938 350.175781 408.636719 C 349.125 403.835938 348.449219 398.738281 348.074219 392.210938 C 347.550781 382.914062 347.699219 367.011719 348.375 357.789062 C 348.824219 351.5625 351.898438 342.5625 350.625 342.113281 C 349.351562 341.511719 343.050781 351.710938 339.824219 356.8125 C 336.675781 361.914062 333.976562 367.238281 331.351562 372.636719 C 328.726562 378.039062 326.699219 382.460938 324.148438 389.0625 C 320.398438 398.960938 315.300781 421.761719 312 426.261719 C 311.023438 427.613281 310.199219 427.914062 309.226562 428.210938 C 308.25 428.4375 306.824219 428.289062 305.925781 427.835938 C 304.949219 427.3125 304.050781 426.261719 303.675781 425.289062 C 303.300781 424.3125 303.300781 422.8125 303.675781 421.988281 C 303.898438 421.386719 304.574219 421.386719 305.023438 420.710938 C 305.925781 419.363281 306.449219 417.261719 307.648438 413.738281 C 311.101562 403.085938 322.875 355.761719 326.101562 348.9375 C 326.773438 347.511719 327 347.0625 327.75 346.539062 C 328.5 346.085938 329.625 345.789062 330.523438 345.863281 C 331.425781 346.011719 332.476562 346.460938 333.074219 347.210938 C 333.75 348.039062 333.976562 350.886719 333.976562 350.886719 " clip-rule="nonzero"/></clipPath><clipPath id="33df21f8a2"><path d="M 0.25 0 L 161.878906 0 L 161.878906 100 L 0.25 100 Z M 0.25 0 " clip-rule="nonzero"/></clipPath><clipPath id="ec71f7d712"><path d="M 30.976562 16.886719 C 22.273438 52.4375 16.199219 73.886719 13.425781 82.363281 C 12.226562 86.039062 11.550781 88.363281 10.5 90.3125 C 9.75 91.585938 9.148438 92.488281 8.25 93.164062 C 7.351562 93.761719 6.074219 94.289062 5.101562 94.363281 C 4.273438 94.363281 3.601562 94.210938 2.925781 93.835938 C 2.101562 93.3125 1.050781 92.1875 0.675781 91.289062 C 0.375 90.613281 0.300781 90.238281 0.375 89.113281 C 0.824219 84.164062 8.476562 61.886719 12.148438 51.914062 C 14.773438 45.085938 16.949219 40.4375 19.648438 34.8125 C 22.351562 29.1875 25.5 23.1875 28.5 18.3125 C 30.976562 14.335938 33.375 10.664062 35.925781 7.585938 C 37.949219 5.039062 39.601562 2.039062 42.148438 0.988281 C 44.699219 -0.0625 48.976562 0.0117188 51.226562 1.210938 C 53.101562 2.261719 54.148438 3.914062 55.050781 6.988281 C 57.601562 15.460938 54 46.289062 54.824219 58.289062 C 55.199219 64.8125 55.800781 69.085938 56.773438 73.363281 C 57.523438 76.664062 57.75 81.835938 59.625 81.988281 C 65.101562 82.511719 92.101562 19.363281 100.648438 8.261719 C 103.425781 4.585938 105.449219 3.011719 107.398438 1.738281 C 108.601562 0.988281 109.648438 0.539062 110.699219 0.460938 C 111.523438 0.386719 112.273438 0.539062 112.949219 0.988281 C 113.851562 1.511719 114.898438 2.710938 115.351562 3.613281 C 115.726562 4.363281 115.800781 5.113281 115.726562 5.9375 C 115.5 6.914062 114.226562 9.164062 114.074219 9.085938 C 114 9.011719 115.273438 3.914062 115.726562 3.914062 C 116.25 3.914062 116.773438 7.210938 117.074219 10.0625 C 117.601562 16.289062 116.023438 31.289062 116.25 39.835938 C 116.398438 46.289062 117 51.386719 117.601562 56.789062 C 118.125 61.664062 118.425781 65.863281 119.550781 70.738281 C 120.75 76.511719 121.875 86.789062 124.949219 89.039062 C 126.824219 90.460938 129.375 90.085938 131.925781 88.960938 C 136.5 87.011719 144.75 77.1875 147.824219 72.6875 C 149.550781 70.0625 150.148438 68.261719 150.898438 65.710938 C 151.648438 62.9375 152.101562 59.414062 152.25 56.5625 C 152.324219 54.085938 152.625 51.460938 151.800781 49.511719 C 151.050781 47.710938 149.476562 46.210938 147.898438 45.085938 C 146.175781 43.886719 143.699219 43.0625 141.75 42.613281 C 140.023438 42.164062 138.523438 42.539062 136.800781 42.238281 C 134.773438 41.789062 131.625 40.960938 130.5 39.914062 C 129.824219 39.386719 129.601562 38.710938 129.523438 38.039062 C 129.375 37.363281 129.523438 36.539062 129.898438 35.9375 C 130.199219 35.335938 130.875 34.738281 131.476562 34.4375 C 132.074219 34.136719 132.976562 34.0625 133.648438 34.289062 C 134.25 34.4375 135.074219 34.8125 135.449219 35.414062 C 135.976562 36.085938 136.351562 37.585938 136.050781 38.488281 C 135.824219 39.386719 134.773438 40.4375 133.875 40.738281 C 132.976562 41.039062 131.476562 40.738281 130.726562 40.210938 C 130.050781 39.613281 129.375 38.1875 129.449219 37.289062 C 129.523438 36.386719 130.199219 35.1875 131.175781 34.585938 C 132.523438 33.761719 135.601562 33.914062 137.851562 33.988281 C 140.175781 34.0625 142.5 34.363281 144.976562 35.113281 C 147.898438 36.011719 151.648438 37.363281 154.273438 39.460938 C 156.898438 41.5625 159.449219 44.710938 160.648438 47.863281 C 161.851562 50.9375 161.699219 54.460938 161.625 57.914062 C 161.476562 61.738281 160.875 66.011719 159.75 69.613281 C 158.699219 73.0625 157.050781 76.363281 155.25 79.136719 C 153.601562 81.6875 151.574219 83.488281 149.476562 85.738281 C 147.226562 88.136719 144.824219 90.914062 142.273438 93.011719 C 139.800781 95.113281 137.175781 97.511719 134.324219 98.5625 C 131.550781 99.613281 128.25 100.136719 125.398438 99.460938 C 122.324219 98.789062 118.726562 96.386719 116.625 93.835938 C 114.523438 91.289062 113.773438 87.6875 112.648438 84.3125 C 111.375 80.488281 110.398438 76.363281 109.648438 72.164062 C 108.75 67.511719 108.148438 62.636719 107.625 57.539062 C 107.023438 51.914062 106.5 46.0625 106.273438 39.761719 C 106.050781 32.5625 106.199219 22.210938 106.648438 16.664062 C 106.875 13.511719 107.550781 11.789062 107.699219 9.3125 C 107.773438 6.835938 106.648438 3.085938 107.398438 1.738281 C 107.851562 0.988281 108.675781 0.761719 109.5 0.613281 C 110.476562 0.460938 112.050781 0.613281 112.949219 0.988281 C 113.773438 1.289062 114.375 1.8125 114.824219 2.5625 C 115.351562 3.386719 115.726562 4.960938 115.726562 5.9375 C 115.648438 6.761719 115.425781 7.363281 114.898438 8.1875 C 113.851562 9.6875 111.523438 10.363281 109.125 13.4375 C 100.949219 23.636719 75.898438 77.1875 67.351562 87.3125 C 64.648438 90.460938 63.148438 91.960938 60.898438 92.5625 C 59.101562 93.164062 56.925781 92.9375 55.351562 91.960938 C 53.25 90.761719 51.601562 87.613281 50.25 84.914062 C 48.75 81.914062 48 78.460938 47.175781 74.636719 C 46.125 69.835938 45.449219 64.738281 45.074219 58.210938 C 44.550781 48.914062 44.699219 33.011719 45.375 23.789062 C 45.824219 17.5625 48.898438 8.5625 47.625 8.113281 C 46.351562 7.511719 40.050781 17.710938 36.824219 22.8125 C 33.675781 27.914062 30.976562 33.238281 28.351562 38.636719 C 25.726562 44.039062 23.699219 48.460938 21.148438 55.0625 C 17.398438 64.960938 12.300781 87.761719 9 92.261719 C 8.023438 93.613281 7.199219 93.914062 6.226562 94.210938 C 5.25 94.4375 3.824219 94.289062 2.925781 93.835938 C 1.949219 93.3125 1.050781 92.261719 0.675781 91.289062 C 0.300781 90.3125 0.300781 88.8125 0.675781 87.988281 C 0.898438 87.386719 1.574219 87.386719 2.023438 86.710938 C 2.925781 85.363281 3.449219 83.261719 4.648438 79.738281 C 8.101562 69.085938 19.875 21.761719 23.101562 14.9375 C 23.773438 13.511719 24 13.0625 24.75 12.539062 C 25.5 12.085938 26.625 11.789062 27.523438 11.863281 C 28.425781 12.011719 29.476562 12.460938 30.074219 13.210938 C 30.75 14.039062 30.976562 16.886719 30.976562 16.886719 " clip-rule="nonzero"/></clipPath><clipPath id="2e960d0b7a"><rect x="0" width="162" y="0" height="100"/></clipPath></defs><g transform="matrix(1, 0, 0, 1, 0, -0.000000000000057351)"><g clip-path="url(#a38bd26e2b)"><g mask="url(#3645201a43)"><g transform="matrix(1, 0, 0, 1, 0, -0.000000000000057351)"><g clip-path="url(#b2279ff993)"><g clip-path="url(#cad09dd541)"><rect x="-279.552" fill="url(#d69d82b782)" width="1327.104" y="-279.551998" height="1327.10399"/></g></g></g></g></g></g><g clip-path="url(#a7a78e0141)"><g clip-path="url(#1d11f6a6b4)"><g transform="matrix(1, 0, 0, 1, 268, 268)"><g clip-path="url(#ec8ba899a4)"><g clip-path="url(#f687765cf1)"><g clip-path="url(#c9e2dac041)"><path fill="#919191" d="M 0.800781 0.800781 L 231.199219 0.800781 L 231.199219 231.199219 L 0.800781 231.199219 Z M 0.800781 0.800781 " fill-opacity="1" fill-rule="nonzero"/></g></g></g></g></g></g><g clip-path="url(#ba1479ef5e)"><g clip-path="url(#836dd6fea5)"><g transform="matrix(1, 0, 0, 1, 303, 334)"><g clip-path="url(#2e960d0b7a)"><g clip-path="url(#33df21f8a2)"><g clip-path="url(#ec71f7d712)"><rect x="-471.96" width="1105.92" fill="#000000" height="1105.919991" y="-502.959999" fill-opacity="1"/></g></g></g></g></g></g></svg>