<?xml version="1.0" encoding="UTF-8"?>
<svg xmlns="http://www.w3.org/2000/svg" version="1.2" baseProfile="tiny-ps" viewBox="0 0 768 768"><title>Chitswa</title>&gt;<defs><g/><clipPath id="f298fe4b8e"><rect x="0" width="733" y="0" height="768"/></clipPath><clipPath id="b52238d77e"><path d="M176.6 224h329.1v329h-329.1zM176.6 224"/></clipPath><clipPath id="eba2c8de49"><path d="M409.3 224l96.4 96.4v136.2l-96.4 96.4h-136.3l-96.4-96.4v-136.2l96.4-96.4zM409.3 224"/></clipPath><clipPath id="fedf03612f"><path d="M.6 1h329.1v329h-329.1zM.6 1"/></clipPath><clipPath id="89c4c8766a"><path d="M233.3 1l96.4 96.4v136.2l-96.4 96.4h-136.3l-96.4-96.4v-136.2l96.4-96.4zM233.3 1"/></clipPath><clipPath id="66de0e5c46"><rect x="0" width="330" y="0" height="331"/></clipPath><clipPath id="9662b289aa"><path d="M125.2 230h511.8v317h-511.8zM125.2 230"/></clipPath><clipPath id="1d3fdfba24"><path d="M222.6 283.6c-27.6 112.6-46.8 180.6-55.6 207.4-3.8 11.7-6 19-9.3 25.2-2.4 4.1-4.3 6.9-7.1 9.1-2.9 1.9-6.9 3.5-10 3.8-2.6 0-4.8-.5-6.9-1.7-2.6-1.7-5.9-5.2-7.1-8.1-1-2.1-1.2-3.3-1-6.9 1.4-15.7 25.7-86.2 37.3-117.8 8.3-21.7 15.2-36.4 23.8-54.2 8.5-17.8 18.5-36.8 28-52.3 7.9-12.6 15.5-24.2 23.5-34 6.5-8 11.7-17.6 19.8-20.9 8-3.3 21.6-3.1 28.7.7 6 3.4 9.3 8.6 12.1 18.3 8.1 26.9-3.3 124.5-.7 162.6 1.2 20.6 3.1 34.2 6.2 47.7 2.4 10.5 3.1 26.9 9 27.3 17.4 1.7 102.9-198.4 130-233.5 8.8-11.7 15.2-16.7 21.4-20.7 3.8-2.4 7.1-3.8 10.4-4 2.7-.3 5 .2 7.2 1.6 2.8 1.7 6.2 5.5 7.6 8.3 1.2 2.4 1.4 4.8 1.2 7.4-.7 3.1-4.8 10.2-5.3 10-.2-.3 3.8-16.4 5.3-16.4 1.6 0 3.3 10.4 4.2 19.5 1.7 19.7-3.3 67.2-2.6 94.3.5 20.4 2.4 36.6 4.3 53.7 1.7 15.5 2.6 28.8 6.2 44.2 3.8 18.3 7.4 50.9 17.1 58 5.9 4.5 14 3.3 22.1-.3 14.5-6.1 40.6-37.3 50.4-51.5 5.4-8.3 7.3-14 9.7-22.1 2.4-8.8 3.8-20 4.3-29 .2-7.8 1.2-16.2-1.4-22.3-2.4-5.7-7.4-10.5-12.4-14.1-5.5-3.8-13.3-6.4-19.5-7.8-5.4-1.4-10.2-.2-15.7-1.2-6.4-1.4-16.4-4-19.9-7.4-2.2-1.6-2.9-3.8-3.1-5.9-.5-2.1 0-4.7 1.2-6.7.9-1.9 3.1-3.8 5-4.7 1.9-1 4.7-1.2 6.9-.5 1.9.5 4.5 1.7 5.7 3.6 1.6 2.1 2.8 6.9 1.9 9.7-.7 2.9-4.1 6.2-6.9 7.2-2.9.9-7.6 0-10-1.7-2.1-1.9-4.3-6.4-4-9.3.2-2.8 2.3-6.6 5.4-8.5 4.3-2.6 14-2.2 21.2-1.9 7.3.2 14.7 1.2 22.5 3.5 9.3 2.9 21.2 7.2 29.5 13.8 8.3 6.7 16.4 16.7 20.2 26.6 3.8 9.8 3.3 20.9 3.1 31.9-.5 12.1-2.4 25.6-5.9 37-3.4 11-8.6 21.4-14.3 30.2-5.2 8.1-11.7 13.8-18.3 20.9-7.1 7.6-14.7 16.4-22.8 23.1-7.9 6.6-16.2 14.2-25.2 17.6-8.8 3.3-19.2 5-28.3 2.8-9.7-2.1-21.1-9.7-27.8-17.8-6.6-8.1-9-19.5-12.6-30.2-4-12.1-7.1-25.2-9.5-38.5-2.8-14.7-4.7-30.2-6.4-46.3-1.9-17.8-3.6-36.4-4.3-56.3-.7-22.8-.2-55.6 1.2-73.2.7-10 2.9-15.5 3.3-23.3.3-7.8-3.3-19.7-.9-24 1.4-2.4 4-3.1 6.6-3.6 3.1-.4 8.1 0 11 1.2 2.6 1 4.5 2.6 5.9 5 1.7 2.6 2.9 7.6 2.9 10.7-.3 2.6-1 4.5-2.6 7.1-3.4 4.8-10.7 6.9-18.3 16.7-25.9 32.3-105.3 201.9-132.4 234-8.5 10-13.3 14.7-20.4 16.7-5.7 1.9-12.6 1.1-17.6-2-6.7-3.8-11.9-13.7-16.2-22.3-4.7-9.5-7.1-20.4-9.7-32.5-3.3-15.2-5.5-31.4-6.7-52.1-1.6-29.4-1.2-79.8 1-109 1.4-19.8 11.2-48.3 7.1-49.7-4-1.9-24 30.4-34.2 46.6-10 16.1-18.5 33-26.9 50.1-8.3 17.1-14.7 31.1-22.8 52-11.8 31.4-28 103.6-38.5 117.9-3.1 4.3-5.7 5.2-8.8 6.2-3 .7-7.6.2-10.4-1.2-3.1-1.7-5.9-5-7.1-8.1-1.2-3.1-1.2-7.8 0-10.4.7-1.9 2.8-1.9 4.2-4.1 2.9-4.3 4.6-10.9 8.4-22.1 10.9-33.7 48.2-183.7 58.4-205.3 2.2-4.5 2.9-5.9 5.2-7.6 2.4-1.4 6-2.4 8.8-2.1 2.9.4 6.2 1.9 8.1 4.2 2.1 2.7 2.9 11.7 2.9 11.7"/></clipPath><clipPath id="ef30bb6d39"><path d="M.3 0h511.7v317h-511.7zM.3 0"/></clipPath><clipPath id="ced1e458bf"><path d="M97.6 53.6c-27.6 112.6-46.8 180.6-55.6 207.4-3.8 11.7-6 19-9.3 25.2-2.4 4.1-4.3 6.9-7.1 9.1-2.9 1.9-6.9 3.5-10 3.8-2.6 0-4.8-.5-6.9-1.7-2.6-1.7-5.9-5.2-7.1-8.1-1-2.1-1.2-3.3-1-6.9 1.4-15.7 25.7-86.2 37.3-117.8 8.3-21.7 15.2-36.4 23.8-54.2 8.5-17.8 18.5-36.8 28-52.3 7.9-12.6 15.5-24.2 23.5-34 6.5-8 11.7-17.6 19.8-20.9 8-3.3 21.6-3.1 28.7.7 6 3.4 9.3 8.6 12.1 18.3 8.1 26.9-3.3 124.5-.7 162.6 1.2 20.6 3.1 34.2 6.2 47.7 2.4 10.5 3.1 26.9 9 27.3 17.4 1.7 102.9-198.4 130-233.5 8.8-11.7 15.2-16.7 21.4-20.7 3.8-2.4 7.1-3.8 10.4-4 2.7-.3 5 .2 7.2 1.6 2.8 1.7 6.2 5.5 7.6 8.3 1.2 2.4 1.4 4.8 1.2 7.4-.7 3.1-4.8 10.2-5.3 10-.2-.3 3.8-16.4 5.3-16.4 1.6 0 3.3 10.4 4.2 19.5 1.7 19.7-3.3 67.2-2.6 94.3.5 20.4 2.4 36.6 4.3 53.7 1.7 15.5 2.6 28.8 6.2 44.2 3.8 18.3 7.4 50.9 17.1 58 5.9 4.5 14 3.3 22.1-.3 14.5-6.1 40.6-37.3 50.4-51.5 5.4-8.3 7.3-14 9.7-22.1 2.4-8.8 3.8-20 4.3-29 .2-7.8 1.2-16.2-1.4-22.3-2.4-5.7-7.4-10.5-12.4-14.1-5.5-3.8-13.3-6.4-19.5-7.8-5.4-1.4-10.2-.2-15.7-1.2-6.4-1.4-16.4-4-19.9-7.4-2.2-1.6-2.9-3.8-3.1-5.9-.5-2.1 0-4.7 1.2-6.7.9-1.9 3.1-3.8 5-4.7 1.9-1 4.7-1.2 6.9-.5 1.9.5 4.5 1.7 5.7 3.6 1.6 2.1 2.8 6.9 1.9 9.7-.7 2.9-4.1 6.2-6.9 7.2-2.9.9-7.6 0-10-1.7-2.1-1.9-4.3-6.4-4-9.3.2-2.8 2.3-6.6 5.4-8.5 4.3-2.6 14-2.2 21.2-1.9 7.3.2 14.7 1.2 22.5 3.5 9.3 2.9 21.2 7.2 29.5 13.8 8.3 6.7 16.4 16.7 20.2 26.6 3.8 9.8 3.3 20.9 3.1 31.9-.5 12.1-2.4 25.6-5.9 37-3.4 11-8.6 21.4-14.3 30.2-5.2 8.1-11.7 13.8-18.3 20.9-7.1 7.6-14.7 16.4-22.8 23.1-7.9 6.6-16.2 14.2-25.2 17.6-8.8 3.3-19.2 5-28.3 2.8-9.7-2.1-21.1-9.7-27.8-17.8-6.6-8.1-9-19.5-12.6-30.2-4-12.1-7.1-25.2-9.5-38.5-2.8-14.7-4.7-30.2-6.4-46.3-1.9-17.8-3.6-36.4-4.3-56.3-.7-22.8-.2-55.6 1.2-73.2.7-10 2.9-15.5 3.3-23.3.3-7.8-3.3-19.7-.9-24 1.4-2.4 4-3.1 6.6-3.6 3.1-.4 8.1 0 11 1.2 2.6 1 4.5 2.6 5.9 5 1.7 2.6 2.9 7.6 2.9 10.7-.3 2.6-1 4.5-2.6 7.1-3.4 4.8-10.7 6.9-18.3 16.7-25.9 32.3-105.3 201.9-132.4 234-8.5 10-13.3 14.7-20.4 16.7-5.7 1.9-12.6 1.1-17.6-2-6.7-3.8-11.9-13.7-16.2-22.3-4.7-9.5-7.1-20.4-9.7-32.5-3.3-15.2-5.5-31.4-6.7-52.1-1.6-29.4-1.2-79.8 1-109 1.4-19.8 11.2-48.3 7.1-49.7-4-1.9-24 30.4-34.2 46.6-10 16.1-18.5 33-26.9 50.1-8.3 17.1-14.7 31.1-22.8 52-11.8 31.4-28 103.6-38.5 117.9-3.1 4.3-5.7 5.2-8.8 6.2-3 .7-7.6.2-10.4-1.2-3.1-1.7-5.9-5-7.1-8.1-1.2-3.1-1.2-7.8 0-10.4.7-1.9 2.8-1.9 4.2-4.1 2.9-4.3 4.6-10.9 8.4-22.1 10.9-33.7 48.2-183.7 58.4-205.3 2.2-4.5 2.9-5.9 5.2-7.6 2.4-1.4 6-2.4 8.8-2.1 2.9.4 6.2 1.9 8.1 4.2 2.1 2.7 2.9 11.7 2.9 11.7"/></clipPath><clipPath id="1c5ba98c7c"><rect x="0" width="512" y="0" height="317"/></clipPath></defs><g transform="matrix(1, 0, 0, 1, 28, -0.000000000000057351)"><g clip-path="url(#f298fe4b8e)"><g fill="#ff914d"><g transform="translate(39.003625, 707.738449)"><g><path d="M-32.8-324c0-58.2 10-109.3 30-153.1 20-43.9 47.1-80.4 81.2-109.4 33.9-28.8 71.8-50.6 113.7-65.1 41.8-14.6 84.5-21.9 128.2-21.9 41.2 0 81.4 6.3 120.6 19 39.4 12.7 75.5 31.9 108.5 57.6 33.1 25.8 60.5 57.9 82.1 96.4 21.7 38.5 35 83.4 40.1 134.8l.9 9.5h-258.3l-1.9-6.1c-6.9-22.2-18.3-38.8-34.2-49.7-16.2-11.1-33.3-16.6-51.3-16.6-22.5 0-43.3 8.5-62.4 25.6-18.8 16.9-28.2 43.2-28.2 79 .6 35.1 10.1 61.1 28.7 78 18.8 17.1 39.4 25.6 61.9 25.6 18.6 0 36.3-5.8 53.1-17.5 16.5-11.4 27.5-28.5 33.2-51.1l1.6-6.6h257.7l-.8 9.5c-4.4 51.3-17.5 96.3-39.2 134.8-21.6 38.5-48.9 70.6-82 96.4-33 25.7-69.3 45.1-109 58.1-39.6 12.9-80.2 19.4-122 19.4-43.7 0-86.4-7.1-128.2-21.3-41.9-14.3-79.7-35.9-113.3-64.8-33.8-29-60.7-65.3-80.7-108.8-20-43.6-30-94.1-30-151.7zM-15.4-324c0 55 9.4 103.2 28.4 144.4 19 41.3 44.4 75.6 76.2 102.9 32 27.4 67.9 47.9 107.7 61.5 39.9 13.6 80.7 20.4 122.5 20.4 39.9 0 78.8-6.2 116.6-18.6 37.7-12.4 72.3-30.8 103.7-55.2 31.2-24.4 57.1-54.8 77.6-91.2 20.4-36.3 32.7-79 37-127.8l8.6.7v8.7h-241.4v-8.7l8.5 2.1c-6.7 26.9-20.1 47.3-40.2 61.2-19.7 13.7-40.7 20.6-63 20.6-27 0-51.5-10-73.6-30.1-22.3-20.3-33.8-50.6-34.4-90.9 0-41 11.3-71.6 34-91.9 22.4-20.1 47-30.1 74-30.1 21.6 0 42 6.5 61.1 19.6 19.3 13.2 33 32.9 41 59l-8.3 2.5v-8.7h242.3v8.7l-8.6.9c-4.9-49-17.5-91.6-38-128-20.4-36.4-46.3-66.8-77.6-91.2-31.3-24.4-65.7-42.7-103.1-54.7-37.5-12.1-76-18.2-115.3-18.2-41.7 0-82.5 7-122.5 20.9-39.8 13.9-75.8 34.5-108.1 62-32.2 27.3-57.7 61.8-76.7 103.3-18.9 41.6-28.4 90.2-28.4 145.9zM-15.4-324"/></g></g></g></g></g><g clip-path="url(#b52238d77e)"><g clip-path="url(#eba2c8de49)"><g transform="matrix(1, 0, 0, 1, 176, 223)"><g clip-path="url(#66de0e5c46)"><g clip-path="url(#fedf03612f)"><g clip-path="url(#89c4c8766a)"><path fill="#ff914d" d="M.6 1h329.1v329h-329.1zM.6 1"/></g></g></g></g></g></g><g clip-path="url(#9662b289aa)"><g clip-path="url(#1d3fdfba24)"><g transform="matrix(1, 0, 0, 1, 125, 230)"><g clip-path="url(#1c5ba98c7c)"><g clip-path="url(#ef30bb6d39)"><g clip-path="url(#ced1e458bf)"><rect x="-294" width="1105.9" fill="#004aad" height="1105.9" y="-399"/></g></g></g></g></g></g></svg>