<svg xmlns="http://www.w3.org/2000/svg" version="1.2" baseProfile="tiny-ps" viewBox="0 0 768 768">
<title>Chitswa</title>
<defs><g/><clipPath id="f298fe4b8e"><rect x="0" width="733" y="0" height="768"/></clipPath><clipPath id="b52238d77e"><path d="M 176.597656 223.964844 L 505.671875 223.964844 L 505.671875 553.039062 L 176.597656 553.039062 Z M 176.597656 223.964844 " clip-rule="nonzero"/></clipPath><clipPath id="eba2c8de49"><path d="M 409.261719 223.964844 L 505.671875 320.375 L 505.671875 456.628906 L 409.261719 553.039062 L 273.007812 553.039062 L 176.597656 456.628906 L 176.597656 320.375 L 273.007812 223.964844 Z M 409.261719 223.964844 " clip-rule="nonzero"/></clipPath><clipPath id="fedf03612f"><path d="M 0.597656 0.964844 L 329.671875 0.964844 L 329.671875 330.039062 L 0.597656 330.039062 Z M 0.597656 0.964844 " clip-rule="nonzero"/></clipPath><clipPath id="89c4c8766a"><path d="M 233.261719 0.964844 L 329.671875 97.375 L 329.671875 233.628906 L 233.261719 330.039062 L 97.007812 330.039062 L 0.597656 233.628906 L 0.597656 97.375 L 97.007812 0.964844 Z M 233.261719 0.964844 " clip-rule="nonzero"/></clipPath><clipPath id="66de0e5c46"><rect x="0" width="330" y="0" height="331"/></clipPath><clipPath id="9662b289aa"><path d="M 125.210938 230 L 637 230 L 637 547 L 125.210938 547 Z M 125.210938 230 " clip-rule="nonzero"/></clipPath><clipPath id="1d3fdfba24"><path d="M 222.558594 283.59375 C 194.996094 396.226562 175.75 464.183594 166.957031 491.035156 C 163.15625 502.675781 161.015625 510.042969 157.691406 516.222656 C 155.3125 520.261719 153.414062 523.113281 150.5625 525.25 C 147.710938 527.152344 143.671875 528.816406 140.582031 529.054688 C 137.96875 529.054688 135.828125 528.578125 133.691406 527.390625 C 131.078125 525.726562 127.75 522.164062 126.5625 519.3125 C 125.609375 517.171875 125.375 515.984375 125.609375 512.421875 C 127.035156 496.738281 151.273438 426.164062 162.917969 394.5625 C 171.234375 372.9375 178.125 358.207031 186.679688 340.382812 C 195.234375 322.5625 205.214844 303.554688 214.71875 288.109375 C 222.558594 275.515625 230.164062 263.871094 238.242188 254.128906 C 244.65625 246.050781 249.886719 236.546875 257.964844 233.21875 C 266.042969 229.890625 279.585938 230.128906 286.714844 233.933594 C 292.65625 237.257812 295.984375 242.484375 298.835938 252.226562 C 306.914062 279.078125 295.507812 376.738281 298.121094 414.757812 C 299.308594 435.433594 301.210938 448.976562 304.300781 462.519531 C 306.675781 472.976562 307.390625 489.371094 313.328125 489.847656 C 330.675781 491.507812 416.21875 291.433594 443.304688 256.269531 C 452.097656 244.625 458.515625 239.632812 464.691406 235.59375 C 468.492188 233.21875 471.820312 231.792969 475.148438 231.554688 C 477.761719 231.316406 480.136719 231.792969 482.277344 233.21875 C 485.128906 234.882812 488.453125 238.683594 489.878906 241.535156 C 491.066406 243.910156 491.304688 246.289062 491.066406 248.902344 C 490.355469 251.992188 486.316406 259.121094 485.839844 258.882812 C 485.601562 258.644531 489.640625 242.484375 491.066406 242.484375 C 492.730469 242.484375 494.394531 252.941406 495.34375 261.96875 C 497.007812 281.691406 492.019531 329.214844 492.730469 356.304688 C 493.207031 376.738281 495.105469 392.898438 497.007812 410.007812 C 498.671875 425.453125 499.621094 438.757812 503.1875 454.203125 C 506.988281 472.5 510.550781 505.054688 520.292969 512.183594 C 526.234375 516.695312 534.3125 515.507812 542.394531 511.945312 C 556.886719 505.765625 583.027344 474.640625 592.769531 460.382812 C 598.234375 452.066406 600.132812 446.363281 602.511719 438.285156 C 604.886719 429.492188 606.3125 418.324219 606.789062 409.292969 C 607.023438 401.453125 607.976562 393.136719 605.363281 386.957031 C 602.984375 381.253906 597.996094 376.503906 593.007812 372.9375 C 587.539062 369.136719 579.699219 366.523438 573.519531 365.097656 C 568.054688 363.671875 563.304688 364.859375 557.839844 363.910156 C 551.421875 362.484375 541.441406 359.871094 537.878906 356.542969 C 535.738281 354.878906 535.027344 352.742188 534.789062 350.601562 C 534.3125 348.464844 534.789062 345.851562 535.976562 343.949219 C 536.929688 342.046875 539.066406 340.148438 540.96875 339.195312 C 542.867188 338.246094 545.71875 338.007812 547.859375 338.722656 C 549.757812 339.195312 552.375 340.382812 553.5625 342.285156 C 555.226562 344.425781 556.414062 349.175781 555.460938 352.027344 C 554.75 354.878906 551.421875 358.207031 548.570312 359.15625 C 545.71875 360.105469 540.96875 359.15625 538.589844 357.492188 C 536.453125 355.59375 534.3125 351.078125 534.550781 348.226562 C 534.789062 345.375 536.929688 341.574219 540.015625 339.671875 C 544.292969 337.058594 554.035156 337.53125 561.164062 337.769531 C 568.53125 338.007812 575.898438 338.957031 583.738281 341.335938 C 593.007812 344.1875 604.886719 348.464844 613.203125 355.117188 C 621.519531 361.769531 629.597656 371.75 633.402344 381.730469 C 637.203125 391.472656 636.726562 402.640625 636.488281 413.570312 C 636.015625 425.691406 634.113281 439.234375 630.550781 450.640625 C 627.222656 461.570312 621.996094 472.023438 616.292969 480.816406 C 611.066406 488.894531 604.648438 494.597656 597.996094 501.726562 C 590.867188 509.332031 583.261719 518.121094 575.183594 524.777344 C 567.34375 531.429688 559.027344 539.035156 549.996094 542.359375 C 541.207031 545.6875 530.75 547.351562 521.71875 545.210938 C 511.976562 543.074219 500.574219 535.46875 493.917969 527.390625 C 487.265625 519.3125 484.890625 507.90625 481.324219 497.210938 C 477.285156 485.09375 474.195312 472.023438 471.820312 458.71875 C 468.96875 443.984375 467.070312 428.539062 465.40625 412.382812 C 463.503906 394.5625 461.839844 376.027344 461.128906 356.066406 C 460.414062 333.257812 460.890625 300.464844 462.316406 282.882812 C 463.027344 272.902344 465.167969 267.4375 465.644531 259.59375 C 465.878906 251.753906 462.316406 239.871094 464.691406 235.59375 C 466.117188 233.21875 468.730469 232.507812 471.34375 232.03125 C 474.433594 231.554688 479.425781 232.03125 482.277344 233.21875 C 484.890625 234.167969 486.789062 235.832031 488.214844 238.207031 C 489.878906 240.824219 491.066406 245.8125 491.066406 248.902344 C 490.832031 251.515625 490.117188 253.417969 488.453125 256.03125 C 485.128906 260.78125 477.761719 262.921875 470.15625 272.664062 C 444.257812 304.980469 364.894531 474.640625 337.804688 506.71875 C 329.25 516.695312 324.496094 521.449219 317.367188 523.351562 C 311.667969 525.25 304.773438 524.539062 299.785156 521.449219 C 293.132812 517.648438 287.90625 507.667969 283.628906 499.113281 C 278.875 489.609375 276.5 478.679688 273.886719 466.558594 C 270.558594 451.351562 268.417969 435.195312 267.230469 414.519531 C 265.566406 385.058594 266.042969 334.683594 268.183594 305.453125 C 269.609375 285.734375 279.351562 257.21875 275.3125 255.792969 C 271.269531 253.890625 251.3125 286.207031 241.09375 302.367188 C 231.113281 318.523438 222.558594 335.394531 214.242188 352.503906 C 205.925781 369.613281 199.511719 383.632812 191.429688 404.542969 C 179.550781 435.90625 163.390625 508.144531 152.9375 522.398438 C 149.847656 526.675781 147.234375 527.628906 144.144531 528.578125 C 141.054688 529.289062 136.542969 528.816406 133.691406 527.390625 C 130.601562 525.726562 127.75 522.398438 126.5625 519.3125 C 125.375 516.222656 125.375 511.46875 126.5625 508.855469 C 127.273438 506.953125 129.414062 506.953125 130.839844 504.816406 C 133.691406 500.539062 135.355469 493.886719 139.15625 482.71875 C 150.085938 448.976562 187.390625 299.039062 197.609375 277.414062 C 199.75 272.902344 200.460938 271.476562 202.835938 269.8125 C 205.214844 268.386719 208.777344 267.4375 211.628906 267.671875 C 214.480469 268.148438 217.808594 269.574219 219.707031 271.949219 C 221.847656 274.5625 222.558594 283.59375 222.558594 283.59375 Z M 222.558594 283.59375 "/></g></g></g></g></g><g clip-path="url(#b52238d77e)"><g clip-path="url(#eba2c8de49)"><g transform="matrix(1, 0, 0, 1, 176, 223)"><g clip-path="url(#66de0e5c46)"><g clip-path="url(#fedf03612f)"><g clip-path="url(#89c4c8766a)"><path fill="#ff914d" d="M 0.597656 0.964844 L 329.671875 0.964844 L 329.671875 330.039062 L 0.597656 330.039062 Z M 0.597656 0.964844 " fill-opacity="1" fill-rule="nonzero"/></g></g></g></g></g></g><g clip-path="url(#9662b289aa)"><g clip-path="url(#1d3fdfba24)"><g transform="matrix(1, 0, 0, 1, 125, 230)"><g clip-path="url(#1c5ba98c7c)"><g clip-path="url(#ef30bb6d39)"><g clip-path="url(#ced1e458bf)"><rect x="-293.96" width="1105.92" fill="#004aad" height="1105.919991" y="-398.959999" fill-opacity="1"/></g></g></g></g></g></g></svg>
